<?xml version="1.0" encoding="UTF-8"?>
<svg id="Capa_2" xmlns="http://www.w3.org/2000/svg" viewBox="0 0 710.69 164.56">
  <defs>
    <style>
      .cls-1 {
        fill: #eaebdb;
      }
    </style>
  </defs>
  <g id="Capa_1-2" data-name="Capa_1">
    <g>
      <path class="cls-1" d="M0,1.18v162.2h84.01v-57.39h78.61V1.18H0ZM85.37,68.5h-8.31v-26.75h8.31v26.75Z"/>
      <polygon class="cls-1" points="363.36 0 526.95 0 526.95 48.25 468.17 48.25 468.17 52.68 526.95 52.68 526.95 163.31 363.36 163.31 363.36 103.7 421.31 103.7 421.31 98.43 363.36 98.43 363.36 0"/>
      <polygon class="cls-1" points="181.56 1.11 260.59 1.11 260.59 100.93 265.16 100.93 265.16 1.11 343.77 1.11 343.77 164.56 181.56 164.56 181.56 1.11"/>
      <polygon class="cls-1" points="546.54 0 546.54 163.31 625.56 163.31 625.56 103.7 630.55 103.7 630.55 163.31 710.69 163.31 710.69 0 630.55 0 630.55 53.51 625.56 53.51 625.56 0 546.54 0"/>
    </g>
  </g>
</svg>