<?xml version="1.0" encoding="UTF-8"?>
<svg id="Capa_2" xmlns="http://www.w3.org/2000/svg" viewBox="0 0 923.19 125.22">
  <defs>
    <style>
      .cls-1 {
        fill: #141414;
      }

      .cls-2 {
        fill: #eaebdb;
      }

      .cls-3 {
        fill: #f54245;
      }
    </style>
  </defs>
  <g id="Capa_1-2" data-name="Capa_1">
    <path class="cls-2" d="M122.46,17.76v44.22c0,1.37,1.11,2.48,2.48,2.48h7.3c1.37,0,2.48,1.11,2.48,2.48v29.22c0,1.37,1.11,2.48,2.48,2.48h58.7c1.37,0,2.48-1.11,2.48-2.48v-29.22c0-1.37,1.11-2.48,2.48-2.48h7.57c1.37,0,2.48-1.11,2.48-2.48V17.76c0-4.47-3.62-8.09-8.09-8.09h-72.26c-4.47,0-8.09,3.62-8.09,8.09Z"/>
    <rect class="cls-2" x="221.85" y="44.07" width="88.17" height="54.56" rx="1.79" ry="1.79"/>
    <path class="cls-2" d="M221.85,11.92v21.82c0,3.13,2.54,5.67,5.67,5.67h76.83c3.13,0,5.67-2.54,5.67-5.67V11.92c0-1.24-1.01-2.25-2.25-2.25h-83.67c-1.24,0-2.25,1.01-2.25,2.25Z"/>
    <path class="cls-2" d="M363.11,42.09v1.44c0,.46.38.84.84.84h43.99c.67,0,1.21.54,1.21,1.21v19.93c0,.67-.54,1.21-1.21,1.21h-43.99c-.46,0-.84.38-.84.85v1.43c0,.47.38.85.84.85h43.99c.67,0,1.21.54,1.21,1.21v24.54c0,1.68-1.36,3.04-3.04,3.04h-79.05c-3.36,0-6.08-2.72-6.08-6.08V15.76c0-3.36,2.72-6.08,6.08-6.08h79.04c1.68,0,3.05,1.37,3.05,3.05v27.3c0,.67-.54,1.21-1.21,1.21h-43.99c-.46,0-.84.38-.84.85Z"/>
    <path class="cls-2" d="M502.83,9.93h-81.72c-.55,0-.99.45-.99.99v86.45c0,.55.45.99.99.99h40.37c.55,0,.99-.45.99-.99v-29.87c0-.55.45-.99.99-.99h1.43c.55,0,.99.45.99.99v29.87c0,.55.45.99.99.99h35.94c3.01,0,5.45-2.44,5.45-5.45v-21.71c0-.26-.1-.51-.28-.69l-2.37-2.37c-.38-.38-.38-1,0-1.38l2.37-2.37c.18-.18.29-.43.29-.69V15.38c0-3.01-2.44-5.45-5.45-5.45ZM465.18,43.81h-2c-.39,0-.71-.32-.71-.71v-7.74c0-.39.32-.71.71-.71h2c.39,0,.71.32.71.71v7.74c0,.39-.32.71-.71.71Z"/>
    <path class="cls-3" d="M834.75,17.35v44.22c0,1.37,1.11,2.48,2.48,2.48h7.3c1.37,0,2.48,1.11,2.48,2.48v29.22c0,1.37,1.11,2.48,2.48,2.48h58.7c1.37,0,2.48-1.11,2.48-2.48v-29.22c0-1.37,1.11-2.48,2.48-2.48h7.57c1.37,0,2.48-1.11,2.48-2.48V17.35c0-4.47-3.62-8.09-8.09-8.09h-72.26c-4.47,0-8.09,3.62-8.09,8.09Z"/>
    <rect class="cls-3" x="626.52" y="43.81" width="88.17" height="54.56" rx="1.79" ry="1.79"/>
    <path class="cls-3" d="M626.52,11.67v21.82c0,3.13,2.54,5.67,5.67,5.67h76.83c3.13,0,5.67-2.54,5.67-5.67V11.67c0-1.24-1.01-2.25-2.25-2.25h-83.67c-1.24,0-2.25,1.01-2.25,2.25Z"/>
    <path class="cls-3" d="M525.14,9.42h39.65c1.15,0,2.09.93,2.09,2.09v25.3c0,1.15.93,2.09,2.09,2.09h40.96c1.15,0,2.09.93,2.09,2.09v55.3c0,1.15-.93,2.09-2.09,2.09h-79.17c-4.25,0-7.7-3.45-7.7-7.7V11.5c0-1.15.93-2.09,2.09-2.09Z"/>
    <polygon class="cls-3" points="729.2 9.11 818.61 9.11 818.61 35.48 786.48 35.48 786.48 37.9 818.61 37.9 818.61 98.37 729.2 98.37 729.2 65.79 760.87 65.79 760.87 62.91 729.2 62.91 729.2 9.11"/>
    <polygon class="cls-1" points="90.22 7.4 90.22 97.61 58.44 97.61 30.84 125.22 30.84 97.61 0 97.61 0 7.4 90.22 7.4"/>
    <polygon class="cls-3" points="97.59 0 97.59 90.21 65.81 90.21 38.21 117.82 38.21 90.21 7.37 90.21 7.37 0 97.59 0"/>
    <polygon class="cls-2" points="79.81 29.8 79.81 70.18 25.16 70.18 25.16 45.07 68.83 45.07 68.83 40.87 54.13 40.87 54.13 29.8 79.81 29.8"/>
    <rect class="cls-2" x="54.13" y="15.2" width="11.2" height="11.2"/>
    <rect class="cls-2" x="39.51" y="15.2" width="11.2" height="25.89"/>
    <rect class="cls-2" x="25.16" y="15.2" width="11.2" height="25.89"/>
  </g>
</svg>