<?xml version="1.0" encoding="UTF-8"?>
<svg id="Capa_2" xmlns="http://www.w3.org/2000/svg" viewBox="0 0 872.32 125.22">
  <defs>
    <style>
      .cls-1 {
        fill: #141414;
      }

      .cls-2 {
        fill: #eaebdb;
      }

      .cls-3 {
        fill: #f54245;
      }
    </style>
  </defs>
  <g id="Capa_1-2" data-name="Capa_1">
    <polygon class="cls-2" points="122.46 9.67 122.46 44.28 134.72 44.28 134.72 98.63 198.38 98.63 198.38 44.28 210.9 44.28 210.9 9.67 122.46 9.67"/>
    <rect class="cls-2" x="221.85" y="44.07" width="65.03" height="54.56"/>
    <rect class="cls-2" x="221.85" y="9.67" width="65.03" height="29.74"/>
    <rect class="cls-3" x="601.08" y="44.07" width="65.03" height="54.56"/>
    <rect class="cls-3" x="601.08" y="9.67" width="65.03" height="29.74"/>
    <path class="cls-2" d="M339.97,42.09v2.28h46.04v22.34h-45.2c-.46,0-.84.38-.84.85v1.43c0,.47.38.85.84.85h45.2v28.79h-88.17V9.68h88.17v31.56h-45.2c-.46,0-.84.38-.84.85Z"/>
    <path class="cls-2" d="M485.13,9.93h-88.17v88.44h42.36v-31.86h3.42v31.86h42.39v-25.1l-6.94-5.82,6.94-5.4V9.93ZM442.74,43.81h-3.42v-9.16h3.42v9.16Z"/>
    <polygon class="cls-3" points="783.88 9.26 783.88 43.86 796.15 43.86 796.15 98.22 859.8 98.22 859.8 43.86 872.32 43.86 872.32 9.26 783.88 9.26"/>
    <polygon class="cls-3" points="499.91 9.42 543.74 9.42 543.74 58.14 588.87 58.14 588.87 98.37 499.91 98.37 499.91 9.42"/>
    <polygon class="cls-3" points="678.33 9.11 767.74 9.11 767.74 35.48 735.62 35.48 735.62 37.9 767.74 37.9 767.74 98.37 678.33 98.37 678.33 65.79 710 65.79 710 62.91 678.33 62.91 678.33 9.11"/>
    <polygon class="cls-1" points="90.22 7.4 90.22 97.61 58.44 97.61 30.84 125.22 30.84 97.61 0 97.61 0 7.4 90.22 7.4"/>
    <polygon class="cls-3" points="97.59 0 97.59 90.21 65.81 90.21 38.21 117.82 38.21 90.21 7.37 90.21 7.37 0 97.59 0"/>
    <polygon class="cls-2" points="79.81 29.8 79.81 70.18 25.16 70.18 25.16 45.07 68.83 45.07 68.83 40.87 54.13 40.87 54.13 29.8 79.81 29.8"/>
    <rect class="cls-2" x="54.13" y="15.2" width="11.2" height="11.2"/>
    <rect class="cls-2" x="39.51" y="15.2" width="11.2" height="25.89"/>
    <rect class="cls-2" x="25.16" y="15.2" width="11.2" height="25.89"/>
    <rect class="cls-2" x="68.61" y="15.2" width="11.2" height="11.2"/>
  </g>
</svg>